<?xml version="1.0" standalone="no"?>
<!DOCTYPE svg PUBLIC "-//W3C//DTD SVG 20010904//EN"
 "http://www.w3.org/TR/2001/REC-SVG-20010904/DTD/svg10.dtd">
<svg version="1.0" xmlns="http://www.w3.org/2000/svg"
 width="260.000000pt" height="260.000000pt" viewBox="0 0 260.000000 260.000000"
 preserveAspectRatio="xMidYMid meet">
<metadata>
Created by potrace 1.11, written by Peter Selinger 2001-2013
</metadata>
<g transform="translate(0.000000,260.000000) scale(0.100000,-0.100000)"
fill="#000000" stroke="none">
<path d="M1105 2564 c-42 -18 -100 -76 -126 -126 -17 -33 -20 -53 -16 -95 8
-74 14 -80 51 -44 43 42 96 62 180 67 70 5 70 5 42 -11 l-28 -17 48 -31 c44
-29 114 -114 114 -139 0 -6 -8 -7 -17 -3 -43 16 -73 18 -73 3 0 -8 -18 -49
-40 -90 -22 -42 -41 -90 -42 -107 -3 -38 -25 -41 -83 -8 -48 27 -83 77 -91
129 -8 46 -14 47 -37 8 -23 -38 -24 -104 -2 -157 l16 -41 -35 -50 c-20 -27
-42 -65 -50 -83 -12 -30 -51 -168 -61 -221 -18 -91 -137 -192 -252 -214 -40
-7 -42 -23 -7 -57 23 -24 24 -26 6 -31 -45 -15 -85 -92 -64 -124 5 -7 26 -15
47 -17 30 -3 46 2 68 21 16 13 34 24 40 24 6 0 4 -6 -5 -12 -23 -20 -29 -46
-12 -62 12 -13 20 -13 52 -2 20 7 53 16 73 20 33 6 37 4 43 -19 6 -22 36 -37
36 -17 1 14 85 98 126 126 72 47 124 97 144 137 29 55 25 64 -15 33 -19 -14
-35 -25 -36 -23 0 2 -2 13 -4 23 -2 11 -13 55 -25 99 -27 97 -28 178 -5 235
22 55 35 54 24 -2 -10 -57 -7 -91 22 -202 l23 -91 32 38 32 39 7 -66 c21 -189
-11 -272 -154 -408 -52 -50 -119 -116 -149 -146 -59 -61 -168 -217 -158 -227
3 -4 29 0 56 9 l49 16 -18 -37 c-10 -20 -35 -81 -56 -136 -44 -116 -66 -153
-109 -183 -17 -12 -26 -22 -21 -23 58 -4 68 -19 14 -19 -48 -1 -89 -5 -190
-21 -113 -18 -142 -79 -58 -121 114 -57 154 -66 297 -66 76 -1 158 -6 182 -12
128 -34 157 -20 190 91 19 62 23 68 40 59 33 -18 42 -12 39 27 -1 21 -1 63 0
93 l2 55 19 -24 c23 -27 23 -27 40 74 24 144 91 235 285 390 104 84 147 135
166 198 14 43 30 50 23 10 -17 -91 -84 -182 -189 -255 -71 -49 -72 -51 -64
-82 4 -17 10 -44 12 -61 7 -43 35 -122 65 -180 24 -47 26 -48 32 -25 3 14 5
41 4 60 -1 32 0 33 13 15 7 -11 29 -41 48 -66 19 -26 44 -65 55 -88 20 -37 21
-43 7 -71 l-15 -30 46 -1 47 -1 -35 -10 c-19 -6 -58 -16 -85 -24 -62 -16 -125
-71 -125 -108 0 -14 9 -35 20 -46 34 -34 164 -28 329 16 109 29 152 36 219 35
116 -1 151 20 152 93 0 32 -6 44 -40 75 -22 20 -40 40 -40 44 0 5 21 5 48 2
39 -5 45 -4 32 7 -9 7 -66 55 -127 106 -97 82 -183 171 -183 192 0 4 26 5 57
2 l57 -5 -48 54 c-27 30 -67 80 -89 113 -39 58 -117 214 -117 235 0 6 11 11
25 11 31 0 31 3 1 43 -60 78 -120 245 -141 390 -6 40 -12 50 -34 58 -74 27
-119 58 -163 113 l-32 41 34 -28 c46 -37 133 -76 198 -90 56 -12 56 -12 66
-87 2 -19 9 -57 15 -85 36 -175 146 -389 174 -339 7 12 14 9 40 -15 31 -31 86
-49 107 -36 6 4 15 18 21 32 5 13 13 21 19 18 14 -8 50 13 50 30 0 7 9 17 20
20 28 9 26 50 -5 77 -17 15 -21 24 -14 29 14 9 0 69 -41 171 l-27 67 29 -4
c28 -3 29 -2 23 22 -17 68 -92 199 -147 257 -32 33 -58 61 -58 62 0 1 11 -1
25 -4 19 -3 25 0 25 12 0 26 -92 112 -146 136 -152 69 -213 102 -244 135 l-35
36 28 -10 c16 -6 37 -16 49 -22 18 -10 19 -8 13 13 -14 53 -87 187 -133 248
-27 36 -75 89 -107 118 l-58 53 22 16 c34 23 12 31 -96 31 -110 1 -129 5 -140
36 -7 21 -10 22 -38 10z m592 -1516 c-3 -8 -6 -5 -6 6 -1 11 2 17 5 13 3 -3 4
-12 1 -19z"/>
</g>
</svg>
