<svg version="1.1" id="Layer_1" xmlns="http://www.w3.org/2000/svg" x="0" y="0" viewBox="0 0 24.86 23.87" xml:space="preserve"><style>.st0{fill:#fff}</style><g id="Icon_feather-shopping-cart"><path class="st0" d="M7.95 22.37c-1.38 0-2.49-1.12-2.49-2.49s1.12-2.49 2.49-2.49a2.49 2.49 0 010 4.98zm0-3c-.28 0-.51.23-.51.51s.23.51.51.51.51-.23.51-.51-.23-.51-.51-.51zM18.88 22.37c-1.38 0-2.49-1.12-2.49-2.49s1.12-2.49 2.49-2.49 2.49 1.12 2.49 2.49-1.11 2.49-2.49 2.49zm0-3c-.28 0-.51.23-.51.51s.23.51.51.51.51-.23.51-.51-.23-.51-.51-.51zM8.56 16.41c-1.64 0-3.07-1.17-3.39-2.81L3.51 5.33a.585.585 0 01-.02-.13l-.74-3.7H0C-.83 1.5-1.5.83-1.5 0S-.83-1.5 0-1.5h3.98c.71 0 1.33.5 1.47 1.21l.75 3.76h15.67a1.498 1.498 0 011.48 1.78l-1.59 8.34a3.488 3.488 0 01-3.42 2.82H8.56zM6.8 6.47l1.31 6.54c.05.23.24.41.49.39h9.69c.25-.01.47-.16.52-.39l1.25-6.54H6.8z" transform="translate(1.5 1.5)"/></g></svg>