<?xml version="1.0" encoding="utf-8"?>
<!-- Generator: Adobe Illustrator 23.1.1, SVG Export Plug-In . SVG Version: 6.00 Build 0)  -->
<svg version="1.1" id="Layer_1" xmlns="http://www.w3.org/2000/svg" xmlns:xlink="http://www.w3.org/1999/xlink" x="0px" y="0px"
	 viewBox="0 0 43.37 43.37" style="enable-background:new 0 0 43.37 43.37;" xml:space="preserve">
<style type="text/css">
	.st0{fill:#4272B8;}
	.st1{fill:#FFFFFF;}
</style>
<g id="Group_12" transform="translate(0)">
	<path id="Path_18" class="st0" d="M43.37,21.68C43.37,9.71,33.66,0,21.68,0C9.71,0,0,9.71,0,21.68c0,10.67,7.76,19.75,18.3,21.42
		V27.95h-5.51v-6.27h5.51v-4.78c0-5.43,3.24-8.44,8.19-8.44c1.63,0.02,3.25,0.16,4.85,0.42v5.34h-2.73c-2.69,0-3.53,1.67-3.53,3.39
		v4.07h6.01l-0.96,6.27h-5.05v15.15C35.61,41.44,43.37,32.35,43.37,21.68z"/>
	<path id="Path_19" class="st1" d="M30.13,27.95l0.96-6.27h-6.01v-4.07c0-1.72,0.84-3.39,3.53-3.39h2.73V8.9
		c-1.6-0.26-3.23-0.4-4.85-0.42c-4.95,0-8.19,3-8.19,8.44v4.78h-5.51v6.27h5.51v15.15c1.12,0.18,2.25,0.26,3.39,0.26
		c1.13,0,2.27-0.09,3.39-0.26V27.95H30.13z"/>
</g>
</svg>
