<?xml version="1.0" encoding="utf-8"?>
<!-- Generator: Adobe Illustrator 23.1.1, SVG Export Plug-In . SVG Version: 6.00 Build 0)  -->
<svg version="1.1" id="Layer_1" xmlns="http://www.w3.org/2000/svg" xmlns:xlink="http://www.w3.org/1999/xlink" x="0px" y="0px"
	 viewBox="0 0 44 44" style="enable-background:new 0 0 44 44;" xml:space="preserve">
<style type="text/css">
	.st0{fill-rule:evenodd;clip-rule:evenodd;fill:#ED2153;}
	.st1{fill-rule:evenodd;clip-rule:evenodd;fill:#FFFFFF;}
	.st2{fill-rule:evenodd;clip-rule:evenodd;fill:#6AC9D0;}
</style>
<g id="Group_13" transform="translate(0.489)">
	<g id="Dark_Blue_1_" transform="translate(-0.489 0)">
		<ellipse id="Ellipse_1_1_" cx="22" cy="22" rx="22" ry="22"/>
	</g>
	<g id="tiktok-logo" transform="translate(9.406 6.16)">
		<path id="Path_24" class="st0" d="M19.01,10.46c1.94,1.38,4.26,2.13,6.64,2.12V7.82c-0.47,0-0.94-0.05-1.39-0.15v3.75
			c-2.38,0-4.7-0.74-6.64-2.12v9.72c0,4.87-3.95,8.81-8.81,8.8c-1.74,0-3.45-0.52-4.9-1.49c3.4,3.47,8.98,3.53,12.46,0.13
			c1.69-1.65,2.64-3.92,2.64-6.28L19.01,10.46L19.01,10.46z M20.73,5.66c-0.98-1.07-1.59-2.44-1.72-3.89V1.16h-1.32
			C18.02,3.02,19.12,4.66,20.73,5.66L20.73,5.66z M6.98,22.6c-1.34-1.77-1-4.3,0.78-5.64c1.04-0.79,2.41-1.03,3.65-0.63v-4.87
			c-0.46-0.06-0.93-0.09-1.39-0.08v3.79c-2.12-0.67-4.39,0.5-5.06,2.62C4.36,19.67,5.21,21.71,6.98,22.6z"/>
		<path id="Path_25" class="st1" d="M17.61,9.3c1.94,1.38,4.26,2.13,6.64,2.12V7.68c-1.36-0.29-2.59-1-3.53-2.02
			c-1.61-1-2.71-2.64-3.04-4.5h-3.47v19.02c-0.01,2.23-1.82,4.02-4.04,4.01c-1.25,0-2.43-0.59-3.19-1.59
			c-1.99-1-2.78-3.42-1.78-5.41c0.89-1.77,2.93-2.62,4.82-2.02v-3.79c-4.86,0.1-8.72,4.12-8.62,8.97c0.04,2.24,0.94,4.38,2.51,5.98
			c4.04,2.71,9.51,1.62,12.22-2.42c0.97-1.45,1.49-3.15,1.49-4.9V9.3z"/>
		<path id="Path_26" class="st2" d="M24.25,7.68V6.66c-1.25,0-2.47-0.35-3.53-1.01C21.66,6.68,22.9,7.39,24.25,7.68L24.25,7.68z
			 M17.69,1.16c-0.03-0.18-0.06-0.36-0.07-0.55V0h-4.79v19.02c-0.01,2.23-1.83,4.02-4.05,4.01c-0.62,0-1.23-0.15-1.79-0.43
			c1.35,1.77,3.87,2.12,5.65,0.77c1-0.76,1.59-1.94,1.59-3.19V1.16H17.69z M10.02,11.38V10.3c-4.82-0.66-9.27,2.71-9.93,7.54
			C0.03,18.23,0,18.62,0,19.02c0,2.94,1.46,5.68,3.9,7.31c-3.4-3.47-3.34-9.04,0.13-12.44C5.63,12.32,7.77,11.42,10.02,11.38z"/>
	</g>
</g>
</svg>
