<?xml version="1.0" encoding="utf-8"?>
<!-- Generator: Adobe Illustrator 23.1.1, SVG Export Plug-In . SVG Version: 6.00 Build 0)  -->
<svg version="1.1" id="Layer_1" xmlns="http://www.w3.org/2000/svg" xmlns:xlink="http://www.w3.org/1999/xlink" x="0px" y="0px"
	 viewBox="0 0 44 44" style="enable-background:new 0 0 44 44;" xml:space="preserve">
<style type="text/css">
	.st0{fill:#4198D3;}
	.st1{fill:#FFFFFF;}
</style>
<g id="Twitter_social_icons_-_circle_-_blue" transform="translate(-0.008 0)">
	<g id="Dark_Blue" transform="translate(0.008 0)">
		<circle id="Ellipse_1" class="st0" cx="22" cy="22" r="22"/>
	</g>
	<g id="Logo__x2014__FIXED" transform="translate(9.484 10.759)">
		<path id="Path_17" class="st1" d="M8.03,24.35c9.67,0,14.95-9.37,14.95-17.49c0-0.27,0-0.54-0.01-0.79
			c1.05-0.9,1.94-1.98,2.63-3.19c-0.94,0.49-1.97,0.82-3.02,0.97c1.14-0.83,1.96-2.03,2.31-3.4c-1.01,0.7-2.14,1.21-3.33,1.49
			c-0.91-1.2-2.33-1.92-3.84-1.94c-2.9,0-5.25,2.75-5.25,6.14c0,0.47,0.04,0.94,0.14,1.4C8.2,7.19,4.2,4.82,1.78,1.12
			C1.31,2.08,1.07,3.14,1.07,4.21C1.03,6.18,1.89,8.06,3.41,9.32c-0.85-0.03-1.67-0.3-2.38-0.76v0.08c-0.14,2.74,1.6,5.22,4.22,6.03
			c-0.45,0.14-0.91,0.22-1.38,0.22c-0.33,0-0.67-0.04-0.99-0.12c0.51,2.35,2.5,4.09,4.9,4.27c-1.77,1.67-4.1,2.6-6.53,2.63
			c-0.42,0-0.84-0.03-1.25-0.09C2.29,23.36,5.12,24.34,8.03,24.35"/>
	</g>
</g>
</svg>
